<svg width="87" height="87" viewBox="0 0 87 87" fill="none" xmlns="http://www.w3.org/2000/svg">
<rect width="87" height="87" rx="20" fill="#D5FD52"/>
<path fill-rule="evenodd" clip-rule="evenodd" d="M22.8863 41H21.627C16.2205 41 12.1251 35.8871 12.5834 30.5C13.1111 24.2955 15.75 20 15.75 20L17.6656 26.6403C18.4065 29.2088 20.7573 30.9773 23.4305 30.9773H29.1521C32.25 28.4825 36.1836 27 40.4379 27H49.1855C53.4445 27 57.3762 28.4842 60.4714 30.9773H64.5695C67.2427 30.9773 69.5935 29.2088 70.3345 26.6403L72.25 20C72.25 20 74.8889 24.2955 75.4167 30.5C75.8646 35.7659 71.9615 40.7698 66.7358 40.9923C66.9411 41.8951 67.079 42.8246 67.1438 43.7756L68.8544 68.864C68.9332 70.0194 68.0171 71 66.859 71H22.1901C21.014 71 20.0918 69.9902 20.1983 68.8189L22.5118 43.3704C22.5852 42.5627 22.7113 41.7715 22.8863 41ZM35 43.25C35 41.4551 36.4551 40 38.25 40C40.0449 40 41.5 41.4551 41.5 43.25V47.75C41.5 49.5449 40.0449 51 38.25 51C36.4551 51 35 49.5449 35 47.75V43.25ZM48.5 43.25C48.5 41.4551 49.9551 40 51.75 40C53.5449 40 55 41.4551 55 43.25V47.75C55 49.5449 53.5449 51 51.75 51C49.9551 51 48.5 49.5449 48.5 47.75V43.25Z" fill="black"/>
</svg>
