<svg y="0px" x="0px" fill="none" viewBox="-0.33297297297297296 1.5017600000000004 16.77837837837838 13.0464" xmlns="http://www.w3.org/2000/svg" style="max-height: 500px" width="16.77837837837838" height="13.0464"><g><g><path fill="black" d="M10 2H0V12H5L6.07298 9.85403C4.86983 9.46351 4 8.33333 4 7C4 5.34315 5.34315 4 7 4H9L10 2Z"/><path fill="black" d="M12 8.99994C12 10.6568 10.6569 12 9 12H7L6 14L16 14L16 4L11 4L9.92704 6.14592C11.1302 6.53645 12 7.66662 12 8.99994Z"/><path fill="black" d="M8 6H7C6.44772 6 6 6.44772 6 7C6 7.55228 6.44772 8 7 8L8 6Z"/><path fill="black" d="M8 10L9 8C9.55229 8 10 8.44772 10 9C10 9.55228 9.55228 10 9 10H8Z"/></g></g><text fill="#000000" font-family="Arbeit Regular, Helvetica, Arial-Unicode, Arial, Sans-serif" font-weight="bold" font-size="0.8" y="18.8" x="0.0">Created by PixelBazaar</text><text fill="#000000" font-family="Arbeit Regular, Helvetica, Arial-Unicode, Arial, Sans-serif" font-weight="bold" font-size="0.8" y="19.6" x="0.0">from Noun Project</text></svg>